# This file uses centimeters as units for non-parametric coordinates.

mtllib dart.mtl
g default
v -1.376732 0.000000 -0.433378
v 0.000000 -0.281150 0.158030
v 1.376732 0.000000 -0.433378
v 0.000000 0.281150 0.158030
v -1.376732 0.000000 -0.925008
v 0.000000 0.210027 -0.500000
v 1.376732 0.000000 -0.925008
v 0.000000 -0.210027 -0.500000
v 0.000000 0.000000 0.500000
v -0.200632 0.000000 -0.789594
v 0.200632 0.000000 -0.789594
v -0.141260 0.147875 -0.642048
v 0.141260 0.147876 -0.642048
v -0.141260 -0.147875 -0.642048
v 0.141260 -0.147875 -0.642048
v 0.141260 0.147876 -0.789594
v -0.000000 0.210027 -0.789594
v -0.141261 0.147875 -0.789594
v -0.141260 -0.147875 -0.789594
v 0.141260 -0.147875 -0.789594
v 0.000000 -0.210027 -0.789594
v 0.114272 0.119624 -0.897882
v -0.000000 0.169902 -0.897882
v -0.114273 0.119624 -0.897882
v -0.114272 -0.119624 -0.897882
v -0.162301 -0.000000 -0.897882
v 0.114272 -0.119624 -0.897882
v 0.162301 -0.000000 -0.897882
v 0.000000 -0.169902 -0.897882
v 0.104990 0.109907 -0.988233
v -0.000000 0.156101 -0.988233
v -0.104991 0.109907 -0.988233
v -0.104990 -0.109907 -0.988233
v -0.149118 -0.000000 -0.988233
v 0.104990 -0.109907 -0.988233
v 0.149118 -0.000000 -0.988233
v 0.000000 -0.156101 -0.988233
v 0.000000 0.000000 -0.743182
vt 0.375000 0.125000
vt 0.500000 0.000000
vt 0.625000 0.125000
vt 0.500000 0.250000
vt 0.375000 0.625000
vt 0.500000 0.531250
vt 0.625000 0.625000
vt 0.500000 0.718750
vt 0.375000 1.000000
vt 0.500000 1.000000
vt 0.625000 1.000000
vt 0.500000 0.125000
vt 0.500000 0.625000
vt 0.437500 0.625000
vt 0.562500 0.625000
vt 0.468750 0.593750
vt 0.531250 0.593750
vt 0.468750 0.656250
vt 0.531250 0.656250
vt 0.500000 0.562500
vt 0.531250 0.593750
vt 0.468750 0.593750
vt 0.468750 0.656250
vt 0.531250 0.656250
vt 0.500000 0.687500
vt 0.500000 0.562500
vt 0.531250 0.593750
vt 0.468750 0.593750
vt 0.468750 0.656250
vt 0.437500 0.625000
vt 0.562500 0.625000
vt 0.531250 0.656250
vt 0.500000 0.687500
vt 0.500000 0.562500
vt 0.531250 0.593750
vt 0.468750 0.593750
vt 0.468750 0.656250
vt 0.437500 0.625000
vt 0.562500 0.625000
vt 0.531250 0.656250
vt 0.500000 0.687500
vn 0.000000 0.772453 0.635072
vn 0.395460 0.709485 0.583303
vn 0.000000 0.772453 0.635072
vn 0.395460 -0.709485 0.583303
vn 0.000000 -0.772453 0.635072
vn 0.000000 -0.772453 0.635072
vn -0.395460 0.709485 0.583303
vn -0.395460 -0.709485 0.583303
vn -0.153414 -0.986277 -0.061015
vn -0.153414 -0.986277 -0.061015
vn -0.000000 -0.998092 -0.061746
vn -0.000000 -0.998092 -0.061746
vn -0.153414 0.986277 -0.061015
vn -0.000000 0.998092 -0.061746
vn -0.000000 0.998092 -0.061746
vn -0.153414 0.986277 -0.061015
vn 0.153414 0.986277 -0.061015
vn 0.153414 0.986277 -0.061015
vn 0.083122 -0.686952 -0.721933
vn 0.083122 -0.686952 -0.721933
vn 0.083122 -0.686952 -0.721933
vn -0.083122 -0.686952 -0.721933
vn -0.083122 -0.686952 -0.721933
vn -0.083122 -0.686952 -0.721933
vn 0.153414 -0.986277 -0.061015
vn 0.153414 -0.986277 -0.061015
vn 0.083122 0.686953 -0.721933
vn 0.083122 0.686953 -0.721933
vn 0.083122 0.686953 -0.721933
vn -0.083122 0.686951 -0.721934
vn -0.083122 0.686951 -0.721934
vn -0.083122 0.686951 -0.721934
vn -0.023314 -0.924201 -0.381193
vn -0.023314 -0.924201 -0.381193
vn -0.023314 -0.924201 -0.381193
vn 0.023314 -0.924201 -0.381193
vn 0.023314 -0.924201 -0.381193
vn 0.023314 -0.924201 -0.381193
vn -0.023314 0.924201 -0.381194
vn -0.023314 0.924201 -0.381194
vn -0.023314 0.924201 -0.381194
vn 0.023315 0.924202 -0.381191
vn 0.023315 0.924202 -0.381191
vn 0.023315 0.924202 -0.381191
vn 0.402724 0.915322 -0.000000
vn 0.402724 0.915322 -0.000000
vn 0.400746 0.910826 -0.098989
vn 0.400792 0.910932 -0.097822
vn -0.402726 0.915321 0.000001
vn -0.402726 0.915320 0.000001
vn -0.400795 0.910931 -0.097820
vn -0.400748 0.910825 -0.098988
vn -0.927996 -0.372590 0.000000
vn -0.903088 -0.362590 -0.230134
vn -0.913357 -0.366713 -0.176918
vn 0.903088 -0.362590 -0.230134
vn 0.927996 -0.372590 0.000000
vn 0.913357 -0.366713 -0.176918
vn 0.927995 0.372592 0.000000
vn 0.903087 0.362591 -0.230133
vn 0.913357 0.366714 -0.176917
vn -0.903089 0.362587 -0.230133
vn -0.927997 0.372588 0.000003
vn -0.913359 0.366711 -0.176917
vn 0.402725 -0.915321 0.000000
vn 0.402725 -0.915321 0.000000
vn 0.400794 -0.910931 -0.097821
vn 0.400747 -0.910825 -0.098988
vn -0.402725 -0.915321 0.000000
vn -0.402725 -0.915321 0.000000
vn -0.400747 -0.910825 -0.098988
vn -0.400794 -0.910931 -0.097821
vn 0.389672 0.885659 -0.252514
vn 0.389575 0.885440 -0.253432
vn -0.389579 0.885438 -0.253432
vn -0.389675 0.885658 -0.252514
vn -0.899629 -0.361201 -0.245359
vn -0.899490 -0.361145 -0.245951
vn 0.899490 -0.361145 -0.245951
vn 0.899629 -0.361201 -0.245359
vn 0.899630 0.361201 -0.245358
vn 0.899490 0.361145 -0.245950
vn -0.899491 0.361143 -0.245951
vn -0.899630 0.361199 -0.245359
vn 0.389578 -0.885438 -0.253433
vn 0.389675 -0.885658 -0.252514
vn -0.389675 -0.885658 -0.252514
vn -0.389578 -0.885438 -0.253432
vn 0.398843 0.906506 -0.138463
vn 0.398843 0.906505 -0.138463
vn -0.398847 0.906504 -0.138463
vn -0.398847 0.906504 -0.138463
vn -0.919604 -0.369221 -0.134180
vn -0.919604 -0.369221 -0.134180
vn 0.919604 -0.369221 -0.134180
vn 0.919604 -0.369221 -0.134180
vn 0.919604 0.369221 -0.134180
vn 0.919604 0.369221 -0.134180
vn -0.919605 0.369218 -0.134180
vn -0.919605 0.369218 -0.134180
vn 0.398846 -0.906504 -0.138463
vn 0.398846 -0.906504 -0.138463
vn -0.398846 -0.906504 -0.138463
vn -0.398846 -0.906504 -0.138463
vn -0.347903 -0.790726 -0.503703
vn -0.347903 -0.790725 -0.503703
vn -0.347903 -0.790726 -0.503703
vn 0.347906 -0.790724 -0.503703
vn 0.347906 -0.790724 -0.503703
vn 0.347906 -0.790724 -0.503703
vn 0.808057 0.324435 -0.491717
vn 0.808057 0.324435 -0.491717
vn 0.808057 0.324435 -0.491717
vn -0.808057 0.324435 -0.491717
vn -0.808057 0.324435 -0.491717
vn -0.808057 0.324435 -0.491717
vn -0.808057 -0.324434 -0.491718
vn -0.808057 -0.324434 -0.491718
vn -0.808057 -0.324434 -0.491718
vn 0.808058 -0.324432 -0.491718
vn 0.808058 -0.324432 -0.491718
vn 0.808058 -0.324432 -0.491718
vn -0.347905 0.790724 -0.503703
vn -0.347905 0.790724 -0.503703
vn -0.347905 0.790725 -0.503703
vn 0.347906 0.790724 -0.503703
vn 0.347906 0.790724 -0.503703
vn 0.347906 0.790724 -0.503703
s 1
g pCube6
usemtl initialShadingGroup
f 9/12/1 3/3/2 4/4/3
s 2
f 3/3/4 9/12/5 2/2/6
s 1
f 1/1/7 9/12/1 4/4/3
s 2
f 9/12/5 1/1/8 2/2/6
s 3
f 1/9/9 5/5/10 8/8/11 2/10/12
s 4
f 1/1/13 4/4/14 6/6/15 5/5/16
f 6/6/15 4/4/14 3/3/17 7/7/18
s off
f 14/18/19 5/5/20 10/14/21
f 7/7/22 15/19/23 11/15/24
s 3
f 8/8/11 7/7/25 3/11/26 2/10/12
s off
f 5/5/27 12/16/28 10/14/29
f 13/17/30 7/7/31 11/15/32
f 14/18/33 8/8/34 5/5/35
f 8/8/36 15/19/37 7/7/38
f 6/6/39 12/16/40 5/5/41
f 13/17/42 6/6/43 7/7/44
s 5
f 6/6/45 13/17/46 16/21/47 17/20/48
s 6
f 12/16/49 6/6/50 17/20/51 18/22/52
s 7
f 14/18/53 10/14/54 19/23/55
s 8
f 11/15/56 15/19/57 20/24/58
s 9
f 13/17/59 11/15/60 16/21/61
s 10
f 10/14/62 12/16/63 18/22/64
s 11
f 15/19/65 8/8/66 21/25/67 20/24/68
s 12
f 8/8/69 14/18/70 19/23/71 21/25/72
s 5
f 17/20/48 16/21/47 22/27/73 23/26/74
s 6
f 18/22/52 17/20/51 23/26/75 24/28/76
s 7
f 19/23/55 10/14/54 26/30/77 25/29/78
s 8
f 11/15/56 20/24/58 27/32/79 28/31/80
s 9
f 16/21/61 11/15/60 28/31/81 22/27/82
s 10
f 10/14/62 18/22/64 24/28/83 26/30/84
s 11
f 20/24/68 21/25/67 29/33/85 27/32/86
s 12
f 21/25/72 19/23/71 25/29/87 29/33/88
s 5
f 23/26/74 22/27/73 30/35/89 31/34/90
s 6
f 24/28/76 23/26/75 31/34/91 32/36/92
s 7
f 25/29/78 26/30/77 34/38/93 33/37/94
s 8
f 28/31/80 27/32/79 35/40/95 36/39/96
s 9
f 22/27/82 28/31/81 36/39/97 30/35/98
s 10
f 26/30/84 24/28/83 32/36/99 34/38/100
s 11
f 27/32/86 29/33/85 37/41/101 35/40/102
s 12
f 29/33/88 25/29/87 33/37/103 37/41/104
s off
f 31/34/105 30/35/106 38/13/107
f 32/36/108 31/34/109 38/13/110
f 33/37/111 34/38/112 38/13/113
f 36/39/114 35/40/115 38/13/116
f 30/35/117 36/39/118 38/13/119
f 34/38/120 32/36/121 38/13/122
f 35/40/123 37/41/124 38/13/125
f 37/41/126 33/37/127 38/13/128
